<?xml version="1.0" encoding="UTF-8" standalone="no"?>
<!-- Created with Inkscape (http://www.inkscape.org/) -->

<svg
   width="112.70992mm"
   height="105.47381mm"
   viewBox="0 0 112.70992 105.47381"
   version="1.1"
   id="svg135105"
   inkscape:version="1.2 (dc2aeda, 2022-05-15)"
   sodipodi:docname="sex_differences.svg"
   inkscape:export-filename="../final_figures/posterior_cingulate_Pearson_HoFC_diffs.png"
   inkscape:export-xdpi="300"
   inkscape:export-ydpi="300"
   xmlns:inkscape="http://www.inkscape.org/namespaces/inkscape"
   xmlns:sodipodi="http://sodipodi.sourceforge.net/DTD/sodipodi-0.dtd"
   xmlns="http://www.w3.org/2000/svg"
   xmlns:svg="http://www.w3.org/2000/svg">
  <sodipodi:namedview
     id="namedview135107"
     pagecolor="#ffffff"
     bordercolor="#000000"
     borderopacity="0.25"
     inkscape:showpageshadow="2"
     inkscape:pageopacity="0.0"
     inkscape:pagecheckerboard="0"
     inkscape:deskcolor="#d1d1d1"
     inkscape:document-units="mm"
     showgrid="false"
     inkscape:zoom="0.60645534"
     inkscape:cx="351.22125"
     inkscape:cy="431.19416"
     inkscape:window-width="1470"
     inkscape:window-height="803"
     inkscape:window-x="1920"
     inkscape:window-y="110"
     inkscape:window-maximized="1"
     inkscape:current-layer="layer1" />
  <defs
     id="defs135102">
    <clipPath
       id="cpMC4wMHwzNjAuMDB8MC4wMHwyODguMDA=">
      <rect
         x="0"
         y="0"
         width="360"
         height="288"
         id="rect135650" />
    </clipPath>
    <clipPath
       id="cpNDYuNzZ8MzUzLjAzfDYuOTd8MjkuMDA=">
      <rect
         x="46.759998"
         y="6.9699998"
         width="306.26999"
         height="22.02"
         id="rect135874" />
    </clipPath>
    <clipPath
       id="clipPath136205">
      <rect
         x="0"
         y="0"
         width="360"
         height="288"
         id="rect136203" />
    </clipPath>
    <clipPath
       id="clipPath136211">
      <rect
         x="0"
         y="0"
         width="360"
         height="288"
         id="rect136209" />
    </clipPath>
    <clipPath
       clipPathUnits="userSpaceOnUse"
       id="clipPath137004">
      <rect
         x="46.759998"
         y="29.000002"
         width="306.26999"
         height="219.25002"
         id="rect137006"
         style="stroke-width:0.999998" />
    </clipPath>
    <clipPath
       clipPathUnits="userSpaceOnUse"
       id="clipPath137008">
      <rect
         x="46.759998"
         y="29.000002"
         width="306.26999"
         height="219.25002"
         id="rect137010"
         style="stroke-width:0.999998" />
    </clipPath>
    <clipPath
       clipPathUnits="userSpaceOnUse"
       id="clipPath137539">
      <rect
         x="-5.1893932e-07"
         y="-1.2847714e-08"
         width="360"
         height="288"
         id="rect137541"
         style="stroke-width:0.999998" />
    </clipPath>
    <clipPath
       clipPathUnits="userSpaceOnUse"
       id="clipPath137543">
      <rect
         x="-5.1893932e-07"
         y="-1.2847714e-08"
         width="360"
         height="288"
         id="rect137545"
         style="stroke-width:0.999998" />
    </clipPath>
    <clipPath
       clipPathUnits="userSpaceOnUse"
       id="clipPath137547">
      <rect
         x="-5.1893932e-07"
         y="-1.2847714e-08"
         width="360"
         height="288"
         id="rect137549"
         style="stroke-width:0.999998" />
    </clipPath>
    <clipPath
       clipPathUnits="userSpaceOnUse"
       id="clipPath137551">
      <rect
         x="-5.1893932e-07"
         y="-1.2847714e-08"
         width="360"
         height="288"
         id="rect137553"
         style="stroke-width:0.999998" />
    </clipPath>
    <clipPath
       clipPathUnits="userSpaceOnUse"
       id="clipPath137555">
      <rect
         x="-5.1893932e-07"
         y="-1.2847714e-08"
         width="360"
         height="288"
         id="rect137557"
         style="stroke-width:0.999998" />
    </clipPath>
  </defs>
  <g
     inkscape:label="Layer 1"
     inkscape:groupmode="layer"
     id="layer1">
    <rect
       width="35.277779%"
       height="35.277779%"
       style="fill:none;stroke:none;stroke-width:0.352778;stroke-linecap:round;stroke-linejoin:round;stroke-miterlimit:10"
       id="rect135648"
       x="6.990633"
       y="-0.056882612" />
    <g
       clip-path="url(#cpMC4wMHwzNjAuMDB8MC4wMHwyODguMDA=)"
       id="g135655"
       transform="matrix(0.35277777,0,0,0.35277777,3.4752289,-0.40842353)" />
    <polygon
       points="130.29,202.09 130.29,201.75 130.29,201.42 130.29,201.09 130.29,200.75 130.29,200.42 130.29,200.08 130.29,199.75 130.29,199.42 130.29,199.08 130.29,198.75 130.29,198.42 130.29,198.08 130.29,197.75 130.29,197.42 130.29,197.08 130.29,196.75 130.29,196.41 130.29,196.08 130.29,195.75 130.29,195.41 130.29,195.08 130.29,194.75 130.29,194.41 130.29,194.08 130.29,193.75 130.29,193.41 130.29,193.08 130.29,192.75 130.29,192.41 130.29,192.08 130.29,191.74 130.29,191.41 130.29,191.08 130.29,190.74 130.29,190.41 130.29,190.08 130.29,189.74 130.29,189.41 130.29,189.08 130.29,188.74 130.29,188.41 130.29,188.08 130.29,187.74 130.29,187.41 130.29,187.07 130.29,186.74 130.29,186.41 130.29,186.07 130.29,185.74 130.29,185.41 130.29,185.07 130.29,184.74 130.29,184.41 130.29,184.07 130.29,183.74 130.29,183.41 130.29,183.07 130.29,182.74 130.29,182.4 130.29,182.07 130.29,181.74 130.29,181.4 130.29,181.07 130.29,180.74 130.29,180.4 130.29,180.07 130.29,179.74 130.29,179.4 130.29,179.07 130.29,178.73 130.29,178.4 130.29,178.07 130.29,177.73 130.29,177.4 130.29,177.07 130.29,176.73 130.29,176.4 130.29,176.07 130.29,175.73 130.29,175.4 130.29,175.07 130.29,174.73 130.29,174.4 130.29,174.06 130.29,173.73 130.29,173.4 130.29,173.06 130.29,172.73 130.29,172.4 130.29,172.06 130.29,171.73 130.29,171.4 130.29,171.06 130.29,170.73 130.29,170.4 130.29,170.06 130.29,169.73 130.29,169.39 130.29,169.06 130.29,168.73 130.29,168.39 130.29,168.06 130.29,167.73 130.29,167.39 130.29,167.06 130.29,166.73 130.29,166.39 130.29,166.06 130.29,165.72 130.29,165.39 130.29,165.06 130.29,164.72 130.29,164.39 130.29,164.06 130.29,163.72 130.29,163.39 130.29,163.06 130.29,162.72 130.29,162.39 130.29,162.06 130.29,161.72 130.29,161.39 130.29,161.05 130.29,160.72 130.29,160.39 130.29,160.05 130.29,159.72 130.29,159.39 130.29,159.05 130.29,158.72 130.29,158.39 130.29,158.05 130.29,157.72 130.29,157.39 130.29,157.05 130.29,156.72 130.29,156.38 130.29,156.05 130.29,155.72 130.29,155.38 130.29,155.05 130.29,154.72 130.29,154.38 130.29,154.05 130.29,153.72 130.29,153.38 130.29,153.05 130.29,152.72 130.29,152.38 130.29,152.05 130.29,151.71 130.29,151.38 130.29,151.05 130.29,150.71 130.29,150.38 130.29,150.05 130.29,149.71 130.29,149.38 130.29,149.05 130.29,148.71 130.29,148.38 130.29,148.04 130.29,147.71 130.29,147.38 130.29,147.04 130.29,146.71 130.29,146.38 130.29,146.04 130.29,145.71 130.29,145.38 130.29,145.04 130.29,144.71 130.29,144.38 130.29,144.04 130.29,143.71 130.29,143.37 130.29,143.04 130.29,142.71 130.29,142.37 130.29,142.04 130.29,141.71 130.29,141.37 130.29,141.04 130.29,140.71 130.29,140.37 130.29,140.04 130.29,139.71 130.29,139.37 130.29,139.04 130.29,138.7 130.29,138.37 130.29,138.04 130.29,137.7 130.29,137.37 130.29,137.04 130.29,136.7 130.29,136.37 130.29,136.04 130.29,135.7 130.29,135.37 130.29,135.03 130.29,134.7 130.29,134.37 130.29,134.03 130.29,133.7 130.29,133.37 130.29,133.03 130.29,132.7 130.29,132.37 130.29,132.03 130.29,131.7 130.29,131.37 130.29,131.03 130.29,130.7 130.29,130.36 130.29,130.03 130.29,129.7 130.29,129.36 130.29,129.03 130.29,128.7 130.29,128.36 130.29,128.03 130.29,127.7 130.29,127.36 130.29,127.03 130.29,126.7 130.29,126.36 130.29,126.03 130.29,125.69 130.29,125.36 130.29,125.03 130.29,124.69 130.29,124.36 130.29,124.03 130.29,123.69 130.29,123.36 130.29,123.03 130.29,122.69 130.29,122.36 130.29,122.03 130.29,121.69 130.29,121.36 130.29,121.02 130.29,120.69 130.29,120.36 130.29,120.02 130.29,119.69 130.29,119.36 130.29,119.02 130.29,118.69 130.29,118.36 130.29,118.02 130.29,117.69 130.29,117.35 130.29,117.02 130.29,116.69 130.29,116.35 130.29,116.02 130.29,115.69 130.29,115.35 130.29,115.02 130.29,114.69 130.29,114.35 130.29,114.02 130.29,113.69 130.29,113.35 130.29,113.02 130.29,112.68 130.29,112.35 130.29,112.02 130.29,111.68 130.29,111.35 130.29,111.02 130.29,110.68 130.29,110.35 130.29,110.02 130.29,109.68 130.29,109.35 130.29,109.02 130.29,108.68 130.29,108.35 130.29,108.01 130.29,107.68 130.29,107.35 130.29,107.01 130.29,106.68 130.29,106.35 130.29,106.01 130.29,105.68 130.29,105.35 130.29,105.01 130.29,104.68 130.29,104.34 130.29,104.01 130.29,103.68 130.29,103.34 130.29,103.01 130.29,102.68 130.29,102.34 130.29,102.01 130.29,101.68 130.29,101.34 130.29,101.01 130.29,100.68 130.29,100.34 130.29,100.01 130.29,99.67 130.29,99.34 130.29,99.01 130.29,98.67 130.29,98.34 130.29,98.01 130.29,97.67 130.29,97.34 130.29,97.01 130.29,96.67 130.29,96.34 130.29,96.01 130.29,95.67 130.29,95.34 130.29,95 130.29,94.67 130.29,94.34 130.29,94 130.29,93.67 130.29,93.34 130.29,93 130.29,92.67 130.29,92.34 130.29,92 130.29,91.67 130.29,91.33 130.29,91 130.29,90.67 130.29,90.33 130.29,90 130.29,89.67 130.29,89.33 130.29,89 130.29,88.67 130.29,88.33 130.29,88 130.29,87.67 130.29,87.33 130.29,87 130.29,86.66 130.29,86.33 130.29,86 130.29,85.66 130.29,85.33 130.29,85 130.29,84.66 130.29,84.33 130.29,84 130.29,83.66 130.29,83.33 130.29,83 130.29,82.66 130.29,82.33 130.29,81.99 130.29,81.66 130.29,81.33 130.29,80.99 130.29,80.66 130.29,80.33 130.29,79.99 130.29,79.66 130.29,79.33 130.29,78.99 130.29,78.66 130.29,78.33 130.29,77.99 130.29,77.66 130.29,77.32 130.29,76.99 130.29,76.66 130.29,76.32 130.29,75.99 130.29,75.66 130.29,75.32 130.29,74.99 130.29,74.66 130.29,74.32 130.29,73.99 130.29,73.65 130.29,73.32 130.29,72.99 130.29,72.65 130.29,72.32 130.29,71.99 130.29,71.65 130.29,71.32 130.29,70.99 130.29,70.65 130.29,70.32 130.29,69.99 130.29,69.65 130.29,69.32 130.29,68.98 130.29,68.65 130.29,68.32 130.29,67.98 130.29,67.65 130.29,67.32 130.29,66.98 130.29,66.65 130.29,66.32 130.29,65.98 130.29,65.65 130.29,65.32 130.29,64.98 130.29,64.65 130.29,64.31 130.29,63.98 130.29,63.65 130.29,63.31 130.29,62.98 130.29,62.65 130.29,62.31 130.29,61.98 130.29,61.65 130.29,61.31 130.29,60.98 130.29,60.64 130.29,60.31 130.29,59.98 130.29,59.64 130.29,59.31 130.29,58.98 130.29,58.64 130.29,58.31 130.29,57.98 130.29,57.64 130.29,57.31 130.29,56.98 130.29,56.64 130.29,56.31 130.29,55.97 130.29,55.64 130.29,55.31 130.29,54.97 130.29,54.64 130.29,54.31 130.29,53.97 130.29,53.64 130.29,53.31 130.29,52.97 130.29,52.64 130.29,52.31 130.29,51.97 130.29,51.64 130.29,51.3 130.29,50.97 130.29,50.64 130.29,50.3 130.29,49.97 130.29,49.64 130.29,49.3 130.29,48.97 130.29,48.64 130.29,48.3 130.29,47.97 130.29,47.64 130.29,47.3 130.29,46.97 130.29,46.63 130.29,46.3 130.29,45.97 130.29,45.63 130.29,45.3 130.29,44.97 130.29,44.63 130.29,44.3 130.29,43.97 130.29,43.63 130.29,43.3 130.29,42.96 130.29,42.63 130.29,42.3 130.29,41.96 130.29,41.63 130.29,41.3 130.29,40.96 130.29,40.63 130.29,40.3 130.29,39.96 130.29,39.63 130.29,39.3 130.29,38.96 134.07,38.96 134.08,39.3 134.08,39.63 134.08,39.96 134.08,40.3 134.08,40.63 134.08,40.96 134.08,41.3 134.07,41.63 134.07,41.96 134.06,42.3 134.05,42.63 134.04,42.96 134.03,43.3 134.02,43.63 134,43.97 133.99,44.3 133.97,44.63 133.96,44.97 133.94,45.3 133.93,45.63 133.91,45.97 133.89,46.3 133.88,46.63 133.86,46.97 133.84,47.3 133.83,47.64 133.81,47.97 133.79,48.3 133.78,48.64 133.76,48.97 133.75,49.3 133.74,49.64 133.73,49.97 133.72,50.3 133.71,50.64 133.7,50.97 133.7,51.3 133.69,51.64 133.69,51.97 133.69,52.31 133.69,52.64 133.7,52.97 133.7,53.31 133.71,53.64 133.73,53.97 133.74,54.31 133.76,54.64 133.78,54.97 133.8,55.31 133.83,55.64 133.86,55.97 133.89,56.31 133.93,56.64 133.97,56.98 134.01,57.31 134.06,57.64 134.11,57.98 134.17,58.31 134.23,58.64 134.29,58.98 134.36,59.31 134.43,59.64 134.5,59.98 134.58,60.31 134.67,60.64 134.75,60.98 134.84,61.31 134.94,61.65 135.04,61.98 135.14,62.31 135.25,62.65 135.36,62.98 135.48,63.31 135.6,63.65 135.72,63.98 135.85,64.31 135.98,64.65 136.12,64.98 136.26,65.32 136.4,65.65 136.55,65.98 136.7,66.32 136.85,66.65 137.01,66.98 137.17,67.32 137.33,67.65 137.5,67.98 137.67,68.32 137.84,68.65 138.02,68.98 138.2,69.32 138.38,69.65 138.56,69.99 138.75,70.32 138.93,70.65 139.12,70.99 139.31,71.32 139.51,71.65 139.7,71.99 139.9,72.32 140.09,72.65 140.29,72.99 140.49,73.32 140.69,73.65 140.89,73.99 141.1,74.32 141.3,74.66 141.5,74.99 141.7,75.32 141.91,75.66 142.11,75.99 142.31,76.32 142.51,76.66 142.71,76.99 142.91,77.32 143.11,77.66 143.31,77.99 143.51,78.33 143.7,78.66 143.9,78.99 144.09,79.33 144.28,79.66 144.47,79.99 144.66,80.33 144.85,80.66 145.04,80.99 145.22,81.33 145.4,81.66 145.58,81.99 145.76,82.33 145.93,82.66 146.1,83 146.28,83.33 146.44,83.66 146.61,84 146.77,84.33 146.94,84.66 147.1,85 147.25,85.33 147.41,85.66 147.56,86 147.71,86.33 147.86,86.66 148.01,87 148.15,87.33 148.3,87.67 148.44,88 148.58,88.33 148.71,88.67 148.85,89 148.98,89.33 149.11,89.67 149.25,90 149.38,90.33 149.5,90.67 149.63,91 149.76,91.33 149.88,91.67 150.01,92 150.13,92.34 150.25,92.67 150.38,93 150.5,93.34 150.62,93.67 150.75,94 150.87,94.34 150.99,94.67 151.12,95 151.24,95.34 151.37,95.67 151.49,96.01 151.62,96.34 151.75,96.67 151.88,97.01 152.01,97.34 152.14,97.67 152.28,98.01 152.41,98.34 152.55,98.67 152.69,99.01 152.84,99.34 152.98,99.67 153.13,100.01 153.28,100.34 153.43,100.68 153.59,101.01 153.75,101.34 153.91,101.68 154.08,102.01 154.25,102.34 154.42,102.68 154.6,103.01 154.78,103.34 154.96,103.68 155.15,104.01 155.34,104.34 155.54,104.68 155.74,105.01 155.94,105.35 156.15,105.68 156.37,106.01 156.58,106.35 156.81,106.68 157.03,107.01 157.27,107.35 157.5,107.68 157.74,108.01 157.99,108.35 158.24,108.68 158.49,109.02 158.75,109.35 159.02,109.68 159.29,110.02 159.56,110.35 159.84,110.68 160.13,111.02 160.41,111.35 160.71,111.68 161,112.02 161.31,112.35 161.61,112.68 161.93,113.02 162.24,113.35 162.56,113.69 162.89,114.02 163.22,114.35 163.55,114.69 163.89,115.02 164.23,115.35 164.58,115.69 164.93,116.02 165.28,116.35 165.64,116.69 166,117.02 166.37,117.35 166.74,117.69 167.11,118.02 167.49,118.36 167.87,118.69 168.25,119.02 168.63,119.36 169.02,119.69 169.41,120.02 169.8,120.36 170.2,120.69 170.6,121.02 171,121.36 171.4,121.69 171.8,122.03 172.21,122.36 172.61,122.69 173.02,123.03 173.43,123.36 173.84,123.69 174.25,124.03 174.66,124.36 175.08,124.69 175.49,125.03 175.9,125.36 176.31,125.69 176.72,126.03 177.13,126.36 177.55,126.7 177.95,127.03 178.36,127.36 178.77,127.7 179.18,128.03 179.58,128.36 179.99,128.7 180.39,129.03 180.79,129.36 181.18,129.7 181.58,130.03 181.97,130.36 182.36,130.7 182.74,131.03 183.13,131.37 183.51,131.7 183.88,132.03 184.26,132.37 184.63,132.7 184.99,133.03 185.35,133.37 185.71,133.7 186.06,134.03 186.41,134.37 186.76,134.7 187.1,135.03 187.44,135.37 187.77,135.7 188.1,136.04 188.42,136.37 188.73,136.7 189.05,137.04 189.35,137.37 189.66,137.7 189.96,138.04 190.25,138.37 190.54,138.7 190.82,139.04 191.1,139.37 191.37,139.71 191.64,140.04 191.9,140.37 192.16,140.71 192.41,141.04 192.66,141.37 192.9,141.71 193.14,142.04 193.37,142.37 193.6,142.71 193.82,143.04 194.04,143.37 194.25,143.71 194.46,144.04 194.66,144.38 194.86,144.71 195.06,145.04 195.25,145.38 195.43,145.71 195.61,146.04 195.79,146.38 195.96,146.71 196.13,147.04 196.29,147.38 196.45,147.71 196.61,148.04 196.76,148.38 196.91,148.71 197.05,149.05 197.19,149.38 197.33,149.71 197.46,150.05 197.59,150.38 197.71,150.71 197.84,151.05 197.95,151.38 198.07,151.71 198.18,152.05 198.28,152.38 198.39,152.72 198.48,153.05 198.58,153.38 198.67,153.72 198.76,154.05 198.85,154.38 198.93,154.72 199.01,155.05 199.08,155.38 199.15,155.72 199.22,156.05 199.28,156.38 199.35,156.72 199.4,157.05 199.46,157.39 199.51,157.72 199.56,158.05 199.6,158.39 199.64,158.72 199.68,159.05 199.71,159.39 199.75,159.72 199.77,160.05 199.8,160.39 199.82,160.72 199.84,161.05 199.86,161.39 199.87,161.72 199.88,162.06 199.89,162.39 199.89,162.72 199.89,163.06 199.89,163.39 199.89,163.72 199.88,164.06 199.87,164.39 199.86,164.72 199.84,165.06 199.82,165.39 199.8,165.72 199.78,166.06 199.76,166.39 199.73,166.73 199.7,167.06 199.67,167.39 199.64,167.73 199.6,168.06 199.57,168.39 199.53,168.73 199.49,169.06 199.44,169.39 199.4,169.73 199.35,170.06 199.3,170.4 199.25,170.73 199.2,171.06 199.15,171.4 199.09,171.73 199.04,172.06 198.98,172.4 198.92,172.73 198.86,173.06 198.79,173.4 198.73,173.73 198.66,174.06 198.59,174.4 198.52,174.73 198.45,175.07 198.38,175.4 198.3,175.73 198.22,176.07 198.14,176.4 198.06,176.73 197.97,177.07 197.89,177.4 197.8,177.73 197.7,178.07 197.61,178.4 197.51,178.73 197.41,179.07 197.31,179.4 197.2,179.74 197.09,180.07 196.97,180.4 196.86,180.74 196.73,181.07 196.61,181.4 196.48,181.74 196.34,182.07 196.2,182.4 196.06,182.74 195.91,183.07 195.76,183.41 195.6,183.74 195.43,184.07 195.26,184.41 195.08,184.74 194.9,185.07 194.71,185.41 194.52,185.74 194.32,186.07 194.11,186.41 193.9,186.74 193.67,187.07 193.44,187.41 193.21,187.74 192.96,188.08 192.71,188.41 192.45,188.74 192.19,189.08 191.91,189.41 191.63,189.74 191.34,190.08 191.04,190.41 190.73,190.74 190.42,191.08 190.09,191.41 189.76,191.74 189.42,192.08 189.07,192.41 188.71,192.75 188.34,193.08 187.97,193.41 187.58,193.75 187.19,194.08 186.79,194.41 186.38,194.75 185.96,195.08 185.53,195.41 185.1,195.75 184.66,196.08 184.2,196.41 183.74,196.75 183.27,197.08 182.8,197.42 182.32,197.75 181.82,198.08 181.33,198.42 180.82,198.75 180.31,199.08 179.79,199.42 179.26,199.75 178.73,200.08 178.19,200.42 177.64,200.75 177.09,201.09 176.53,201.42 175.97,201.75 175.4,202.09 174.83,202.42 174.25,202.75 173.67,203.09 173.08,203.42 172.49,203.75 171.9,204.09 171.3,204.42 170.7,204.75 170.1,205.09 169.49,205.42 168.89,205.76 168.28,206.09 167.67,206.42 167.05,206.76 166.44,207.09 165.83,207.42 165.21,207.76 164.6,208.09 163.98,208.42 163.37,208.76 162.75,209.09 162.14,209.42 130.29,209.42 130.29,209.09 130.29,208.76 130.29,208.42 130.29,208.09 130.29,207.76 130.29,207.42 130.29,207.09 130.29,206.76 130.29,206.42 130.29,206.09 130.29,205.76 130.29,205.42 130.29,205.09 130.29,204.75 130.29,204.42 130.29,204.09 130.29,203.75 130.29,203.42 130.29,203.09 130.29,202.75 130.29,202.42 "
       style="fill:#e68ea8;fill-opacity:0.4;stroke:#e68ea8;stroke-width:2.13;stroke-linecap:butt;stroke-linejoin:round;stroke-miterlimit:10"
       id="polygon135662"
       transform="matrix(-0.35277777,0,0,0.35277777,97.978392,3.8100594)"
       clip-path="url(#clipPath137008)" />
    <polygon
       points="269.5,232.25 269.5,231.94 269.5,231.62 269.5,231.3 269.5,230.99 269.5,230.67 269.5,230.35 269.5,230.03 269.5,229.72 269.5,229.4 269.5,229.08 269.5,228.76 269.5,228.45 269.5,228.13 269.5,227.81 269.5,227.5 269.5,227.18 269.5,226.86 269.5,226.54 269.5,226.23 269.5,225.91 269.5,225.59 269.5,225.27 269.5,224.96 269.5,224.64 269.5,224.32 269.5,224 269.5,223.69 269.5,223.37 269.5,223.05 269.5,222.74 269.5,222.42 269.5,222.1 269.5,221.78 269.5,221.47 269.5,221.15 269.5,220.83 269.5,220.51 269.5,220.2 269.5,219.88 269.5,219.56 269.5,219.25 269.5,218.93 269.5,218.61 269.5,218.29 269.5,217.98 269.5,217.66 269.5,217.34 269.5,217.02 269.5,216.71 269.5,216.39 269.5,216.07 269.5,215.76 269.5,215.44 269.5,215.12 269.5,214.8 269.5,214.49 269.5,214.17 269.5,213.85 269.5,213.53 269.5,213.22 269.5,212.9 269.5,212.58 269.5,212.26 269.5,211.95 269.5,211.63 269.5,211.31 269.5,211 269.5,210.68 269.5,210.36 269.5,210.04 269.5,209.73 269.5,209.41 269.5,209.09 269.5,208.77 269.5,208.46 269.5,208.14 269.5,207.82 269.5,207.51 269.5,207.19 269.5,206.87 269.5,206.55 269.5,206.24 269.5,205.92 269.5,205.6 269.5,205.28 269.5,204.97 269.5,204.65 269.5,204.33 269.5,204.02 269.5,203.7 269.5,203.38 269.5,203.06 269.5,202.75 269.5,202.43 269.5,202.11 269.5,201.79 269.5,201.48 269.5,201.16 269.5,200.84 269.5,200.53 269.5,200.21 269.5,199.89 269.5,199.57 269.5,199.26 269.5,198.94 269.5,198.62 269.5,198.3 269.5,197.99 269.5,197.67 269.5,197.35 269.5,197.03 269.5,196.72 269.5,196.4 269.5,196.08 269.5,195.77 269.5,195.45 269.5,195.13 269.5,194.81 269.5,194.5 269.5,194.18 269.5,193.86 269.5,193.54 269.5,193.23 269.5,192.91 269.5,192.59 269.5,192.28 269.5,191.96 269.5,191.64 269.5,191.32 269.5,191.01 269.5,190.69 269.5,190.37 269.5,190.05 269.5,189.74 269.5,189.42 269.5,189.1 269.5,188.79 269.5,188.47 269.5,188.15 269.5,187.83 269.5,187.52 269.5,187.2 269.5,186.88 269.5,186.56 269.5,186.25 269.5,185.93 269.5,185.61 269.5,185.3 269.5,184.98 269.5,184.66 269.5,184.34 269.5,184.03 269.5,183.71 269.5,183.39 269.5,183.07 269.5,182.76 269.5,182.44 269.5,182.12 269.5,181.8 269.5,181.49 269.5,181.17 269.5,180.85 269.5,180.54 269.5,180.22 269.5,179.9 269.5,179.58 269.5,179.27 269.5,178.95 269.5,178.63 269.5,178.31 269.5,178 269.5,177.68 269.5,177.36 269.5,177.05 269.5,176.73 269.5,176.41 269.5,176.09 269.5,175.78 269.5,175.46 269.5,175.14 269.5,174.82 269.5,174.51 269.5,174.19 269.5,173.87 269.5,173.56 269.5,173.24 269.5,172.92 269.5,172.6 269.5,172.29 269.5,171.97 269.5,171.65 269.5,171.33 269.5,171.02 269.5,170.7 269.5,170.38 269.5,170.07 269.5,169.75 269.5,169.43 269.5,169.11 269.5,168.8 269.5,168.48 269.5,168.16 269.5,167.84 269.5,167.53 269.5,167.21 269.5,166.89 269.5,166.57 269.5,166.26 269.5,165.94 269.5,165.62 269.5,165.31 269.5,164.99 269.5,164.67 269.5,164.35 269.5,164.04 269.5,163.72 269.5,163.4 269.5,163.08 269.5,162.77 269.5,162.45 269.5,162.13 269.5,161.82 269.5,161.5 269.5,161.18 269.5,160.86 269.5,160.55 269.5,160.23 269.5,159.91 269.5,159.59 269.5,159.28 269.5,158.96 269.5,158.64 269.5,158.33 269.5,158.01 269.5,157.69 269.5,157.37 269.5,157.06 269.5,156.74 269.5,156.42 269.5,156.1 269.5,155.79 269.5,155.47 269.5,155.15 269.5,154.83 269.5,154.52 269.5,154.2 269.5,153.88 269.5,153.57 269.5,153.25 269.5,152.93 269.5,152.61 269.5,152.3 269.5,151.98 269.5,151.66 269.5,151.34 269.5,151.03 269.5,150.71 269.5,150.39 269.5,150.08 269.5,149.76 269.5,149.44 269.5,149.12 269.5,148.81 269.5,148.49 269.5,148.17 269.5,147.85 269.5,147.54 269.5,147.22 269.5,146.9 269.5,146.59 269.5,146.27 269.5,145.95 269.5,145.63 269.5,145.32 269.5,145 269.5,144.68 269.5,144.36 269.5,144.05 269.5,143.73 269.5,143.41 269.5,143.1 269.5,142.78 269.5,142.46 269.5,142.14 269.5,141.83 269.5,141.51 269.5,141.19 269.5,140.87 269.5,140.56 269.5,140.24 269.5,139.92 269.5,139.6 269.5,139.29 269.5,138.97 269.5,138.65 269.5,138.34 269.5,138.02 269.5,137.7 269.5,137.38 269.5,137.07 269.5,136.75 269.5,136.43 269.5,136.11 269.5,135.8 269.5,135.48 269.5,135.16 269.5,134.85 269.5,134.53 269.5,134.21 269.5,133.89 269.5,133.58 269.5,133.26 269.5,132.94 269.5,132.62 269.5,132.31 269.5,131.99 269.5,131.67 269.5,131.36 269.5,131.04 269.5,130.72 269.5,130.4 269.5,130.09 269.5,129.77 269.5,129.45 269.5,129.13 269.5,128.82 269.5,128.5 269.5,128.18 269.5,127.87 269.5,127.55 269.5,127.23 269.5,126.91 269.5,126.6 269.5,126.28 269.5,125.96 269.5,125.64 269.5,125.33 269.5,125.01 269.5,124.69 269.5,124.37 269.5,124.06 269.5,123.74 269.5,123.42 269.5,123.11 269.5,122.79 269.5,122.47 269.5,122.15 269.5,121.84 269.5,121.52 269.5,121.2 269.5,120.88 269.5,120.57 269.5,120.25 269.5,119.93 269.5,119.62 269.5,119.3 269.5,118.98 269.5,118.66 269.5,118.35 269.5,118.03 269.5,117.71 269.5,117.39 269.5,117.08 269.5,116.76 269.5,116.44 269.5,116.13 269.5,115.81 269.5,115.49 269.5,115.17 269.5,114.86 269.5,114.54 269.5,114.22 269.5,113.9 269.5,113.59 269.5,113.27 269.5,112.95 269.5,112.64 269.5,112.32 269.5,112 269.5,111.68 269.5,111.37 269.5,111.05 269.5,110.73 269.5,110.41 269.5,110.1 269.5,109.78 269.5,109.46 269.5,109.14 269.5,108.83 269.5,108.51 269.5,108.19 269.5,107.88 269.5,107.56 269.5,107.24 269.5,106.92 269.5,106.61 269.5,106.29 269.5,105.97 269.5,105.65 269.5,105.34 269.5,105.02 269.5,104.7 269.5,104.39 269.5,104.07 269.5,103.75 269.5,103.43 269.5,103.12 269.5,102.8 269.5,102.48 269.5,102.16 269.5,101.85 269.5,101.53 269.5,101.21 269.5,100.9 269.5,100.58 269.5,100.26 269.5,99.94 269.5,99.63 269.5,99.31 269.5,98.99 269.5,98.67 269.5,98.36 269.5,98.04 269.5,97.72 269.5,97.4 269.5,97.09 269.5,96.77 269.5,96.45 269.5,96.14 269.5,95.82 269.5,95.5 269.5,95.18 269.5,94.87 269.5,94.55 269.5,94.23 269.5,93.91 269.5,93.6 269.5,93.28 269.5,92.96 269.5,92.65 269.5,92.33 269.5,92.01 269.5,91.69 269.5,91.38 269.5,91.06 269.5,90.74 269.5,90.42 269.5,90.11 269.5,89.79 269.5,89.47 269.5,89.16 269.5,88.84 269.5,88.52 269.5,88.2 269.5,87.89 269.5,87.57 269.5,87.25 269.5,86.93 269.5,86.62 269.5,86.3 269.5,85.98 269.5,85.67 269.5,85.35 269.5,85.03 269.5,84.71 269.5,84.4 269.5,84.08 269.5,83.76 269.5,83.44 269.5,83.13 269.5,82.81 269.5,82.49 269.5,82.17 269.5,81.86 269.5,81.54 269.5,81.22 269.5,80.91 269.5,80.59 269.5,80.27 269.5,79.95 269.5,79.64 269.5,79.32 269.5,79 269.5,78.68 269.5,78.37 269.5,78.05 269.5,77.73 269.5,77.42 269.5,77.1 269.5,76.78 269.5,76.46 269.5,76.15 273.61,76.15 273.6,76.46 273.6,76.78 273.59,77.1 273.57,77.42 273.55,77.73 273.53,78.05 273.5,78.37 273.47,78.68 273.43,79 273.39,79.32 273.35,79.64 273.3,79.95 273.25,80.27 273.2,80.59 273.14,80.91 273.08,81.22 273.02,81.54 272.96,81.86 272.89,82.17 272.82,82.49 272.75,82.81 272.68,83.13 272.61,83.44 272.54,83.76 272.47,84.08 272.39,84.4 272.32,84.71 272.25,85.03 272.18,85.35 272.11,85.67 272.04,85.98 271.97,86.3 271.9,86.62 271.84,86.93 271.78,87.25 271.72,87.57 271.66,87.89 271.6,88.2 271.55,88.52 271.5,88.84 271.46,89.16 271.41,89.47 271.37,89.79 271.34,90.11 271.31,90.42 271.28,90.74 271.26,91.06 271.24,91.38 271.22,91.69 271.21,92.01 271.2,92.33 271.2,92.65 271.2,92.96 271.2,93.28 271.21,93.6 271.23,93.91 271.24,94.23 271.27,94.55 271.29,94.87 271.32,95.18 271.35,95.5 271.39,95.82 271.43,96.14 271.48,96.45 271.52,96.77 271.57,97.09 271.63,97.4 271.68,97.72 271.74,98.04 271.8,98.36 271.87,98.67 271.93,98.99 272,99.31 272.07,99.63 272.14,99.94 272.21,100.26 272.28,100.58 272.35,100.9 272.43,101.21 272.5,101.53 272.57,101.85 272.64,102.16 272.71,102.48 272.78,102.8 272.85,103.12 272.92,103.43 272.99,103.75 273.05,104.07 273.11,104.39 273.17,104.7 273.23,105.02 273.28,105.34 273.33,105.65 273.38,105.97 273.42,106.29 273.46,106.61 273.49,106.92 273.53,107.24 273.55,107.56 273.58,107.88 273.6,108.19 273.61,108.51 273.62,108.83 273.63,109.14 273.63,109.46 273.63,109.78 273.63,110.1 273.61,110.41 273.6,110.73 273.58,111.05 273.56,111.37 273.54,111.68 273.51,112 273.47,112.32 273.44,112.64 273.4,112.95 273.36,113.27 273.32,113.59 273.27,113.9 273.22,114.22 273.17,114.54 273.12,114.86 273.07,115.17 273.02,115.49 272.97,115.81 272.92,116.13 272.87,116.44 272.82,116.76 272.77,117.08 272.72,117.39 272.68,117.71 272.64,118.03 272.6,118.35 272.57,118.66 272.54,118.98 272.51,119.3 272.49,119.62 272.48,119.93 272.47,120.25 272.47,120.57 272.47,120.88 272.48,121.2 272.5,121.52 272.53,121.84 272.57,122.15 272.61,122.47 272.67,122.79 272.73,123.11 272.81,123.42 272.9,123.74 272.99,124.06 273.11,124.37 273.23,124.69 273.36,125.01 273.51,125.33 273.67,125.64 273.85,125.96 274.04,126.28 274.24,126.6 274.46,126.91 274.69,127.23 274.94,127.55 275.2,127.87 275.48,128.18 275.78,128.5 276.09,128.82 276.41,129.13 276.76,129.45 277.11,129.77 277.48,130.09 277.88,130.4 278.28,130.72 278.7,131.04 279.14,131.36 279.59,131.67 280.05,131.99 280.53,132.31 281.03,132.62 281.54,132.94 282.06,133.26 282.59,133.58 283.14,133.89 283.69,134.21 284.26,134.53 284.84,134.85 285.43,135.16 286.03,135.48 286.63,135.8 287.24,136.11 287.86,136.43 288.48,136.75 289.11,137.07 289.74,137.38 290.37,137.7 291,138.02 291.63,138.34 292.27,138.65 292.9,138.97 293.52,139.29 294.15,139.6 294.76,139.92 295.38,140.24 295.98,140.56 296.58,140.87 297.17,141.19 297.74,141.51 298.31,141.83 298.86,142.14 299.4,142.46 299.93,142.78 300.45,143.1 300.95,143.41 301.43,143.73 301.9,144.05 302.35,144.36 302.79,144.68 303.21,145 303.61,145.32 303.99,145.63 304.36,145.95 304.71,146.27 305.04,146.59 305.35,146.9 305.65,147.22 305.93,147.54 306.19,147.85 306.45,148.17 306.68,148.49 306.89,148.81 307.1,149.12 307.29,149.44 307.47,149.76 307.63,150.08 307.79,150.39 307.93,150.71 308.07,151.03 308.19,151.34 308.31,151.66 308.43,151.98 308.53,152.3 308.64,152.61 308.74,152.93 308.83,153.25 308.93,153.57 309.02,153.88 309.12,154.2 309.21,154.52 309.31,154.83 309.41,155.15 309.51,155.47 309.62,155.79 309.73,156.1 309.85,156.42 309.98,156.74 310.1,157.06 310.24,157.37 310.38,157.69 310.53,158.01 310.69,158.33 310.86,158.64 311.03,158.96 311.2,159.28 311.39,159.59 311.59,159.91 311.78,160.23 311.99,160.55 312.21,160.86 312.42,161.18 312.65,161.5 312.88,161.82 313.11,162.13 313.35,162.45 313.59,162.77 313.83,163.08 314.08,163.4 314.33,163.72 314.58,164.04 314.83,164.35 315.08,164.67 315.33,164.99 315.58,165.31 315.82,165.62 316.07,165.94 316.32,166.26 316.56,166.57 316.8,166.89 317.03,167.21 317.27,167.53 317.5,167.84 317.73,168.16 317.95,168.48 318.17,168.8 318.39,169.11 318.61,169.43 318.83,169.75 319.04,170.07 319.25,170.38 319.46,170.7 319.67,171.02 319.88,171.33 320.09,171.65 320.3,171.97 320.51,172.29 320.73,172.6 320.95,172.92 321.17,173.24 321.4,173.56 321.63,173.87 321.87,174.19 322.11,174.51 322.36,174.82 322.62,175.14 322.89,175.46 323.16,175.78 323.45,176.09 323.74,176.41 324.05,176.73 324.37,177.05 324.69,177.36 325.03,177.68 325.38,178 325.74,178.31 326.11,178.63 326.49,178.95 326.88,179.27 327.29,179.58 327.7,179.9 328.12,180.22 328.55,180.54 328.99,180.85 329.43,181.17 329.88,181.49 330.33,181.8 330.79,182.12 331.25,182.44 331.71,182.76 332.17,183.07 332.62,183.39 333.08,183.71 333.53,184.03 333.97,184.34 334.41,184.66 334.83,184.98 335.25,185.3 335.65,185.61 336.04,185.93 336.41,186.25 336.77,186.56 337.1,186.88 337.41,187.2 337.71,187.52 337.97,187.83 338.21,188.15 338.43,188.47 338.62,188.79 338.77,189.1 338.91,189.42 339,189.74 339.07,190.05 339.1,190.37 339.1,190.69 339.06,191.01 339,191.32 338.89,191.64 338.75,191.96 338.58,192.28 338.37,192.59 338.13,192.91 337.85,193.23 337.55,193.54 337.2,193.86 336.82,194.18 336.42,194.5 335.98,194.81 335.51,195.13 335.02,195.45 334.49,195.77 333.94,196.08 333.37,196.4 332.76,196.72 332.14,197.03 331.5,197.35 330.84,197.67 330.16,197.99 329.47,198.3 328.76,198.62 328.04,198.94 327.31,199.26 326.57,199.57 325.83,199.89 325.07,200.21 324.32,200.53 323.56,200.84 322.8,201.16 322.04,201.48 321.28,201.79 320.52,202.11 319.77,202.43 319.02,202.75 318.28,203.06 317.55,203.38 316.83,203.7 316.11,204.02 315.41,204.33 314.71,204.65 314.03,204.97 313.36,205.28 312.7,205.6 312.06,205.92 311.43,206.24 310.8,206.55 310.2,206.87 309.61,207.19 309.02,207.51 308.46,207.82 307.91,208.14 307.36,208.46 306.83,208.77 306.32,209.09 305.81,209.41 305.31,209.73 304.83,210.04 304.35,210.36 303.88,210.68 303.43,211 302.97,211.31 302.53,211.63 302.1,211.95 301.66,212.26 301.24,212.58 300.82,212.9 300.4,213.22 299.99,213.53 299.58,213.85 299.17,214.17 298.76,214.49 298.36,214.8 297.96,215.12 297.55,215.44 297.15,215.76 296.74,216.07 296.34,216.39 295.93,216.71 295.53,217.02 295.12,217.34 294.71,217.66 294.3,217.98 293.89,218.29 293.47,218.61 293.06,218.93 292.64,219.25 292.22,219.56 291.8,219.88 291.38,220.2 290.96,220.51 290.54,220.83 290.12,221.15 289.69,221.47 289.27,221.78 288.85,222.1 288.44,222.42 288.02,222.74 287.61,223.05 287.19,223.37 286.79,223.69 286.38,224 285.98,224.32 285.58,224.64 285.19,224.96 284.81,225.27 284.43,225.59 284.05,225.91 283.68,226.23 283.32,226.54 282.97,226.86 282.62,227.18 282.28,227.5 281.95,227.81 281.63,228.13 281.31,228.45 281,228.76 280.71,229.08 280.42,229.4 280.13,229.72 279.86,230.03 279.6,230.35 279.34,230.67 279.09,230.99 278.86,231.3 278.62,231.62 278.4,231.94 278.19,232.25 277.98,232.57 277.78,232.89 277.59,233.21 277.4,233.52 277.22,233.84 277.05,234.16 276.88,234.48 276.72,234.79 276.57,235.11 276.42,235.43 276.27,235.74 276.13,236.06 275.99,236.38 275.86,236.7 275.73,237.01 275.6,237.33 275.48,237.65 275.36,237.97 275.24,238.28 269.5,238.28 269.5,237.97 269.5,237.65 269.5,237.33 269.5,237.01 269.5,236.7 269.5,236.38 269.5,236.06 269.5,235.74 269.5,235.43 269.5,235.11 269.5,234.79 269.5,234.48 269.5,234.16 269.5,233.84 269.5,233.52 269.5,233.21 269.5,232.89 269.5,232.57 "
       style="fill:#73b3df;fill-opacity:0.4;stroke:#73b3df;stroke-width:2.13;stroke-linecap:butt;stroke-linejoin:round;stroke-miterlimit:10"
       id="polygon135664"
       transform="matrix(0.35277777,0,0,0.35277777,-13.318563,3.8100594)"
       clip-path="url(#clipPath137004)" />
    <circle
       cx="72.203064"
       cy="71.666862"
       r="1.1288888"
       style="fill:#73b3df;fill-opacity:0.6;stroke:#73b3df;stroke-width:0;stroke-linecap:round;stroke-linejoin:round;stroke-miterlimit:10;stroke-opacity:0.6"
       id="circle135666" />
    <circle
       cx="77.847511"
       cy="56.321033"
       r="1.1288888"
       style="fill:#73b3df;fill-opacity:0.6;stroke:#73b3df;stroke-width:0;stroke-linecap:round;stroke-linejoin:round;stroke-miterlimit:10;stroke-opacity:0.6"
       id="circle135668" />
    <circle
       cx="55.75589"
       cy="63.78228"
       r="1.1288888"
       style="fill:#e68ea8;fill-opacity:0.6;stroke:#e68ea8;stroke-width:0;stroke-linecap:round;stroke-linejoin:round;stroke-miterlimit:10;stroke-opacity:0.6"
       id="circle135670" />
    <circle
       cx="57.717335"
       cy="17.554281"
       r="1.1288888"
       style="fill:#e68ea8;fill-opacity:0.6;stroke:#e68ea8;stroke-width:0;stroke-linecap:round;stroke-linejoin:round;stroke-miterlimit:10;stroke-opacity:0.6"
       id="circle135672" />
    <circle
       cx="60.391388"
       cy="77.604111"
       r="1.1288888"
       style="fill:#e68ea8;fill-opacity:0.6;stroke:#e68ea8;stroke-width:0;stroke-linecap:round;stroke-linejoin:round;stroke-miterlimit:10;stroke-opacity:0.6"
       id="circle135674" />
    <circle
       cx="57.428055"
       cy="39.52528"
       r="1.1288888"
       style="fill:#e68ea8;fill-opacity:0.6;stroke:#e68ea8;stroke-width:0;stroke-linecap:round;stroke-linejoin:round;stroke-miterlimit:10;stroke-opacity:0.6"
       id="circle135676" />
    <circle
       cx="77.607613"
       cy="65.976555"
       r="1.1288888"
       style="fill:#73b3df;fill-opacity:0.6;stroke:#73b3df;stroke-width:0;stroke-linecap:round;stroke-linejoin:round;stroke-miterlimit:10;stroke-opacity:0.6"
       id="circle135678" />
    <circle
       cx="58.295887"
       cy="58.825752"
       r="1.1288888"
       style="fill:#e68ea8;fill-opacity:0.6;stroke:#e68ea8;stroke-width:0;stroke-linecap:round;stroke-linejoin:round;stroke-miterlimit:10;stroke-opacity:0.6"
       id="circle135680" />
    <circle
       cx="59.823418"
       cy="67.514671"
       r="1.1288888"
       style="fill:#e68ea8;fill-opacity:0.6;stroke:#e68ea8;stroke-width:0;stroke-linecap:round;stroke-linejoin:round;stroke-miterlimit:10;stroke-opacity:0.6"
       id="circle135682" />
    <circle
       cx="75.032341"
       cy="42.375725"
       r="1.1288888"
       style="fill:#73b3df;fill-opacity:0.6;stroke:#73b3df;stroke-width:0;stroke-linecap:round;stroke-linejoin:round;stroke-miterlimit:10;stroke-opacity:0.6"
       id="circle135684" />
    <circle
       cx="61.372112"
       cy="61.492752"
       r="1.1288888"
       style="fill:#e68ea8;fill-opacity:0.6;stroke:#e68ea8;stroke-width:0;stroke-linecap:round;stroke-linejoin:round;stroke-miterlimit:10;stroke-opacity:0.6"
       id="circle135686" />
    <circle
       cx="60.073887"
       cy="74.467918"
       r="1.1288888"
       style="fill:#e68ea8;fill-opacity:0.6;stroke:#e68ea8;stroke-width:0;stroke-linecap:round;stroke-linejoin:round;stroke-miterlimit:10;stroke-opacity:0.6"
       id="circle135688" />
    <circle
       cx="73.451889"
       cy="72.044334"
       r="1.1288888"
       style="fill:#73b3df;fill-opacity:0.6;stroke:#73b3df;stroke-width:0;stroke-linecap:round;stroke-linejoin:round;stroke-miterlimit:10;stroke-opacity:0.6"
       id="circle135690" />
    <circle
       cx="78.888199"
       cy="62.960308"
       r="1.1288888"
       style="fill:#73b3df;fill-opacity:0.6;stroke:#73b3df;stroke-width:0;stroke-linecap:round;stroke-linejoin:round;stroke-miterlimit:10;stroke-opacity:0.6"
       id="circle135692" />
    <circle
       cx="77.508835"
       cy="61.524506"
       r="1.1288888"
       style="fill:#73b3df;fill-opacity:0.6;stroke:#73b3df;stroke-width:0;stroke-linecap:round;stroke-linejoin:round;stroke-miterlimit:10;stroke-opacity:0.6"
       id="circle135694" />
    <circle
       cx="74.891235"
       cy="59.29142"
       r="1.1288888"
       style="fill:#73b3df;fill-opacity:0.6;stroke:#73b3df;stroke-width:0;stroke-linecap:round;stroke-linejoin:round;stroke-miterlimit:10;stroke-opacity:0.6"
       id="circle135696" />
    <circle
       cx="78.941124"
       cy="64.205612"
       r="1.1288888"
       style="fill:#73b3df;fill-opacity:0.6;stroke:#73b3df;stroke-width:0;stroke-linecap:round;stroke-linejoin:round;stroke-miterlimit:10;stroke-opacity:0.6"
       id="circle135698" />
    <circle
       cx="72.210121"
       cy="69.567833"
       r="1.1288888"
       style="fill:#73b3df;fill-opacity:0.6;stroke:#73b3df;stroke-width:0;stroke-linecap:round;stroke-linejoin:round;stroke-miterlimit:10;stroke-opacity:0.6"
       id="circle135700" />
    <circle
       cx="73.674141"
       cy="81.876251"
       r="1.1288888"
       style="fill:#73b3df;fill-opacity:0.6;stroke:#73b3df;stroke-width:0;stroke-linecap:round;stroke-linejoin:round;stroke-miterlimit:10;stroke-opacity:0.6"
       id="circle135702" />
    <circle
       cx="77.854561"
       cy="71.543388"
       r="1.1288888"
       style="fill:#73b3df;fill-opacity:0.6;stroke:#73b3df;stroke-width:0;stroke-linecap:round;stroke-linejoin:round;stroke-miterlimit:10;stroke-opacity:0.6"
       id="circle135704" />
    <circle
       cx="60.151497"
       cy="53.8022"
       r="1.1288888"
       style="fill:#e68ea8;fill-opacity:0.6;stroke:#e68ea8;stroke-width:0;stroke-linecap:round;stroke-linejoin:round;stroke-miterlimit:10;stroke-opacity:0.6"
       id="circle135706" />
    <circle
       cx="78.256729"
       cy="71.19767"
       r="1.1288888"
       style="fill:#73b3df;fill-opacity:0.6;stroke:#73b3df;stroke-width:0;stroke-linecap:round;stroke-linejoin:round;stroke-miterlimit:10;stroke-opacity:0.6"
       id="circle135708" />
    <circle
       cx="76.909119"
       cy="62.226528"
       r="1.1288888"
       style="fill:#73b3df;fill-opacity:0.6;stroke:#73b3df;stroke-width:0;stroke-linecap:round;stroke-linejoin:round;stroke-miterlimit:10;stroke-opacity:0.6"
       id="circle135710" />
    <circle
       cx="78.489555"
       cy="73.194389"
       r="1.1288888"
       style="fill:#73b3df;fill-opacity:0.6;stroke:#73b3df;stroke-width:0;stroke-linecap:round;stroke-linejoin:round;stroke-miterlimit:10;stroke-opacity:0.6"
       id="circle135712" />
    <circle
       cx="58.094803"
       cy="68.019142"
       r="1.1288888"
       style="fill:#e68ea8;fill-opacity:0.6;stroke:#e68ea8;stroke-width:0;stroke-linecap:round;stroke-linejoin:round;stroke-miterlimit:10;stroke-opacity:0.6"
       id="circle135714" />
    <circle
       cx="60.123276"
       cy="54.83231"
       r="1.1288888"
       style="fill:#e68ea8;fill-opacity:0.6;stroke:#e68ea8;stroke-width:0;stroke-linecap:round;stroke-linejoin:round;stroke-miterlimit:10;stroke-opacity:0.6"
       id="circle135716" />
    <circle
       cx="56.397945"
       cy="52.228809"
       r="1.1288888"
       style="fill:#e68ea8;fill-opacity:0.6;stroke:#e68ea8;stroke-width:0;stroke-linecap:round;stroke-linejoin:round;stroke-miterlimit:10;stroke-opacity:0.6"
       id="circle135718" />
    <circle
       cx="55.759415"
       cy="59.256142"
       r="1.1288888"
       style="fill:#e68ea8;fill-opacity:0.6;stroke:#e68ea8;stroke-width:0;stroke-linecap:round;stroke-linejoin:round;stroke-miterlimit:10;stroke-opacity:0.6"
       id="circle135720" />
    <circle
       cx="77.540596"
       cy="69.892395"
       r="1.1288888"
       style="fill:#73b3df;fill-opacity:0.6;stroke:#73b3df;stroke-width:0;stroke-linecap:round;stroke-linejoin:round;stroke-miterlimit:10;stroke-opacity:0.6"
       id="circle135722" />
    <circle
       cx="56.073387"
       cy="51.505611"
       r="1.1288888"
       style="fill:#e68ea8;fill-opacity:0.6;stroke:#e68ea8;stroke-width:0;stroke-linecap:round;stroke-linejoin:round;stroke-miterlimit:10;stroke-opacity:0.6"
       id="circle135724" />
    <circle
       cx="57.442165"
       cy="71.063614"
       r="1.1288888"
       style="fill:#e68ea8;fill-opacity:0.6;stroke:#e68ea8;stroke-width:0;stroke-linecap:round;stroke-linejoin:round;stroke-miterlimit:10;stroke-opacity:0.6"
       id="circle135726" />
    <circle
       cx="54.972721"
       cy="64.78064"
       r="1.1288888"
       style="fill:#e68ea8;fill-opacity:0.6;stroke:#e68ea8;stroke-width:0;stroke-linecap:round;stroke-linejoin:round;stroke-miterlimit:10;stroke-opacity:0.6"
       id="circle135728" />
    <circle
       cx="77.318344"
       cy="63.18256"
       r="1.1288888"
       style="fill:#73b3df;fill-opacity:0.6;stroke:#73b3df;stroke-width:0;stroke-linecap:round;stroke-linejoin:round;stroke-miterlimit:10;stroke-opacity:0.6"
       id="circle135730" />
    <circle
       cx="61.594364"
       cy="56.645588"
       r="1.1288888"
       style="fill:#e68ea8;fill-opacity:0.6;stroke:#e68ea8;stroke-width:0;stroke-linecap:round;stroke-linejoin:round;stroke-miterlimit:10;stroke-opacity:0.6"
       id="circle135732" />
    <circle
       cx="58.969696"
       cy="63.514172"
       r="1.1288888"
       style="fill:#e68ea8;fill-opacity:0.6;stroke:#e68ea8;stroke-width:0;stroke-linecap:round;stroke-linejoin:round;stroke-miterlimit:10;stroke-opacity:0.6"
       id="circle135734" />
    <circle
       cx="58.105392"
       cy="44.848698"
       r="1.1288888"
       style="fill:#e68ea8;fill-opacity:0.6;stroke:#e68ea8;stroke-width:0;stroke-linecap:round;stroke-linejoin:round;stroke-miterlimit:10;stroke-opacity:0.6"
       id="circle135736" />
    <circle
       cx="75.797874"
       cy="79.516174"
       r="1.1288888"
       style="fill:#73b3df;fill-opacity:0.6;stroke:#73b3df;stroke-width:0;stroke-linecap:round;stroke-linejoin:round;stroke-miterlimit:10;stroke-opacity:0.6"
       id="circle135738" />
    <circle
       cx="76.849144"
       cy="68.262558"
       r="1.1288888"
       style="fill:#73b3df;fill-opacity:0.6;stroke:#73b3df;stroke-width:0;stroke-linecap:round;stroke-linejoin:round;stroke-miterlimit:10;stroke-opacity:0.6"
       id="circle135740" />
    <circle
       cx="72.457069"
       cy="87.869949"
       r="1.1288888"
       style="fill:#73b3df;fill-opacity:0.6;stroke:#73b3df;stroke-width:0;stroke-linecap:round;stroke-linejoin:round;stroke-miterlimit:10;stroke-opacity:0.6"
       id="circle135742" />
    <circle
       cx="55.194973"
       cy="70.749641"
       r="1.1288888"
       style="fill:#e68ea8;fill-opacity:0.6;stroke:#e68ea8;stroke-width:0;stroke-linecap:round;stroke-linejoin:round;stroke-miterlimit:10;stroke-opacity:0.6"
       id="circle135744" />
    <circle
       cx="72.640511"
       cy="66.110611"
       r="1.1288888"
       style="fill:#73b3df;fill-opacity:0.6;stroke:#73b3df;stroke-width:0;stroke-linecap:round;stroke-linejoin:round;stroke-miterlimit:10;stroke-opacity:0.6"
       id="circle135746" />
    <circle
       cx="56.263889"
       cy="55.03339"
       r="1.1288888"
       style="fill:#e68ea8;fill-opacity:0.6;stroke:#e68ea8;stroke-width:0;stroke-linecap:round;stroke-linejoin:round;stroke-miterlimit:10;stroke-opacity:0.6"
       id="circle135748" />
    <circle
       cx="55.290222"
       cy="72.383003"
       r="1.1288888"
       style="fill:#e68ea8;fill-opacity:0.6;stroke:#e68ea8;stroke-width:0;stroke-linecap:round;stroke-linejoin:round;stroke-miterlimit:10;stroke-opacity:0.6"
       id="circle135750" />
    <circle
       cx="76.492844"
       cy="76.023666"
       r="1.1288888"
       style="fill:#73b3df;fill-opacity:0.6;stroke:#73b3df;stroke-width:0;stroke-linecap:round;stroke-linejoin:round;stroke-miterlimit:10;stroke-opacity:0.6"
       id="circle135752" />
    <circle
       cx="55.995777"
       cy="74.079865"
       r="1.1288888"
       style="fill:#e68ea8;fill-opacity:0.6;stroke:#e68ea8;stroke-width:0;stroke-linecap:round;stroke-linejoin:round;stroke-miterlimit:10;stroke-opacity:0.6"
       id="circle135754" />
    <circle
       cx="56.500252"
       cy="59.538364"
       r="1.1288888"
       style="fill:#e68ea8;fill-opacity:0.6;stroke:#e68ea8;stroke-width:0;stroke-linecap:round;stroke-linejoin:round;stroke-miterlimit:10;stroke-opacity:0.6"
       id="circle135756" />
    <circle
       cx="57.36808"
       cy="61.997227"
       r="1.1288888"
       style="fill:#e68ea8;fill-opacity:0.6;stroke:#e68ea8;stroke-width:0;stroke-linecap:round;stroke-linejoin:round;stroke-miterlimit:10;stroke-opacity:0.6"
       id="circle135758" />
    <circle
       cx="73.067368"
       cy="63.200199"
       r="1.1288888"
       style="fill:#73b3df;fill-opacity:0.6;stroke:#73b3df;stroke-width:0;stroke-linecap:round;stroke-linejoin:round;stroke-miterlimit:10;stroke-opacity:0.6"
       id="circle135760" />
    <circle
       cx="55.516003"
       cy="37.821365"
       r="1.1288888"
       style="fill:#e68ea8;fill-opacity:0.6;stroke:#e68ea8;stroke-width:0;stroke-linecap:round;stroke-linejoin:round;stroke-miterlimit:10;stroke-opacity:0.6"
       id="circle135762" />
    <circle
       cx="73.455421"
       cy="54.193783"
       r="1.1288888"
       style="fill:#73b3df;fill-opacity:0.6;stroke:#73b3df;stroke-width:0;stroke-linecap:round;stroke-linejoin:round;stroke-miterlimit:10;stroke-opacity:0.6"
       id="circle135764" />
    <circle
       cx="56.457916"
       cy="53.001392"
       r="1.1288888"
       style="fill:#e68ea8;fill-opacity:0.6;stroke:#e68ea8;stroke-width:0;stroke-linecap:round;stroke-linejoin:round;stroke-miterlimit:10;stroke-opacity:0.6"
       id="circle135766" />
    <circle
       cx="56.620193"
       cy="60.931835"
       r="1.1288888"
       style="fill:#e68ea8;fill-opacity:0.6;stroke:#e68ea8;stroke-width:0;stroke-linecap:round;stroke-linejoin:round;stroke-miterlimit:10;stroke-opacity:0.6"
       id="circle135768" />
    <circle
       cx="56.419109"
       cy="67.278305"
       r="1.1288888"
       style="fill:#e68ea8;fill-opacity:0.6;stroke:#e68ea8;stroke-width:0;stroke-linecap:round;stroke-linejoin:round;stroke-miterlimit:10;stroke-opacity:0.6"
       id="circle135770" />
    <circle
       cx="73.444839"
       cy="73.300224"
       r="1.1288888"
       style="fill:#73b3df;fill-opacity:0.6;stroke:#73b3df;stroke-width:0;stroke-linecap:round;stroke-linejoin:round;stroke-miterlimit:10;stroke-opacity:0.6"
       id="circle135772" />
    <circle
       cx="77.51236"
       cy="72.326561"
       r="1.1288888"
       style="fill:#73b3df;fill-opacity:0.6;stroke:#73b3df;stroke-width:0;stroke-linecap:round;stroke-linejoin:round;stroke-miterlimit:10;stroke-opacity:0.6"
       id="circle135774" />
    <circle
       cx="55.135002"
       cy="47.526279"
       r="1.1288888"
       style="fill:#e68ea8;fill-opacity:0.6;stroke:#e68ea8;stroke-width:0;stroke-linecap:round;stroke-linejoin:round;stroke-miterlimit:10;stroke-opacity:0.6"
       id="circle135776" />
    <circle
       cx="56.006363"
       cy="76.662193"
       r="1.1288888"
       style="fill:#e68ea8;fill-opacity:0.6;stroke:#e68ea8;stroke-width:0;stroke-linecap:round;stroke-linejoin:round;stroke-miterlimit:10;stroke-opacity:0.6"
       id="circle135778" />
    <circle
       cx="56.58139"
       cy="52.65567"
       r="1.1288888"
       style="fill:#e68ea8;fill-opacity:0.6;stroke:#e68ea8;stroke-width:0;stroke-linecap:round;stroke-linejoin:round;stroke-miterlimit:10;stroke-opacity:0.6"
       id="circle135780" />
    <circle
       cx="58.602802"
       cy="47.332253"
       r="1.1288888"
       style="fill:#e68ea8;fill-opacity:0.6;stroke:#e68ea8;stroke-width:0;stroke-linecap:round;stroke-linejoin:round;stroke-miterlimit:10;stroke-opacity:0.6"
       id="circle135782" />
    <circle
       cx="59.057892"
       cy="45.314365"
       r="1.1288888"
       style="fill:#e68ea8;fill-opacity:0.6;stroke:#e68ea8;stroke-width:0;stroke-linecap:round;stroke-linejoin:round;stroke-miterlimit:10;stroke-opacity:0.6"
       id="circle135784" />
    <circle
       cx="76.849144"
       cy="68.057945"
       r="1.1288888"
       style="fill:#73b3df;fill-opacity:0.6;stroke:#73b3df;stroke-width:0;stroke-linecap:round;stroke-linejoin:round;stroke-miterlimit:10;stroke-opacity:0.6"
       id="circle135786" />
    <circle
       cx="55.819389"
       cy="71.137695"
       r="1.1288888"
       style="fill:#e68ea8;fill-opacity:0.6;stroke:#e68ea8;stroke-width:0;stroke-linecap:round;stroke-linejoin:round;stroke-miterlimit:10;stroke-opacity:0.6"
       id="circle135788" />
    <circle
       cx="56.158058"
       cy="69.775978"
       r="1.1288888"
       style="fill:#e68ea8;fill-opacity:0.6;stroke:#e68ea8;stroke-width:0;stroke-linecap:round;stroke-linejoin:round;stroke-miterlimit:10;stroke-opacity:0.6"
       id="circle135790" />
    <circle
       cx="60.391388"
       cy="69.00692"
       r="1.1288888"
       style="fill:#e68ea8;fill-opacity:0.6;stroke:#e68ea8;stroke-width:0;stroke-linecap:round;stroke-linejoin:round;stroke-miterlimit:10;stroke-opacity:0.6"
       id="circle135792" />
    <circle
       cx="74.89476"
       cy="76.923256"
       r="1.1288888"
       style="fill:#73b3df;fill-opacity:0.6;stroke:#73b3df;stroke-width:0;stroke-linecap:round;stroke-linejoin:round;stroke-miterlimit:10;stroke-opacity:0.6"
       id="circle135794" />
    <circle
       cx="77.646423"
       cy="69.416145"
       r="1.1288888"
       style="fill:#73b3df;fill-opacity:0.6;stroke:#73b3df;stroke-width:0;stroke-linecap:round;stroke-linejoin:round;stroke-miterlimit:10;stroke-opacity:0.6"
       id="circle135796" />
    <circle
       cx="59.710526"
       cy="66.399887"
       r="1.1288888"
       style="fill:#e68ea8;fill-opacity:0.6;stroke:#e68ea8;stroke-width:0;stroke-linecap:round;stroke-linejoin:round;stroke-miterlimit:10;stroke-opacity:0.6"
       id="circle135798" />
    <circle
       cx="54.905693"
       cy="32.864838"
       r="1.1288888"
       style="fill:#e68ea8;fill-opacity:0.6;stroke:#e68ea8;stroke-width:0;stroke-linecap:round;stroke-linejoin:round;stroke-miterlimit:10;stroke-opacity:0.6"
       id="circle135800" />
    <circle
       cx="73.938728"
       cy="57.492252"
       r="1.1288888"
       style="fill:#73b3df;fill-opacity:0.6;stroke:#73b3df;stroke-width:0;stroke-linecap:round;stroke-linejoin:round;stroke-miterlimit:10;stroke-opacity:0.6"
       id="circle135802" />
    <circle
       cx="76.478729"
       cy="77.776978"
       r="1.1288888"
       style="fill:#73b3df;fill-opacity:0.6;stroke:#73b3df;stroke-width:0;stroke-linecap:round;stroke-linejoin:round;stroke-miterlimit:10;stroke-opacity:0.6"
       id="circle135804" />
    <circle
       cx="55.205555"
       cy="62.187725"
       r="1.1288888"
       style="fill:#e68ea8;fill-opacity:0.6;stroke:#e68ea8;stroke-width:0;stroke-linecap:round;stroke-linejoin:round;stroke-miterlimit:10;stroke-opacity:0.6"
       id="circle135806" />
    <circle
       cx="79.117516"
       cy="54.641808"
       r="1.1288888"
       style="fill:#73b3df;fill-opacity:0.6;stroke:#73b3df;stroke-width:0;stroke-linecap:round;stroke-linejoin:round;stroke-miterlimit:10;stroke-opacity:0.6"
       id="circle135808" />
    <circle
       cx="77.392426"
       cy="30.674088"
       r="1.1288888"
       style="fill:#73b3df;fill-opacity:0.6;stroke:#73b3df;stroke-width:0;stroke-linecap:round;stroke-linejoin:round;stroke-miterlimit:10;stroke-opacity:0.6"
       id="circle135810" />
    <circle
       cx="55.3255"
       cy="35.048531"
       r="1.1288888"
       style="fill:#e68ea8;fill-opacity:0.6;stroke:#e68ea8;stroke-width:0;stroke-linecap:round;stroke-linejoin:round;stroke-miterlimit:10;stroke-opacity:0.6"
       id="circle135812" />
    <circle
       cx="57.131721"
       cy="52.242916"
       r="1.1288888"
       style="fill:#e68ea8;fill-opacity:0.6;stroke:#e68ea8;stroke-width:0;stroke-linecap:round;stroke-linejoin:round;stroke-miterlimit:10;stroke-opacity:0.6"
       id="circle135814" />
    <circle
       cx="55.470139"
       cy="59.926422"
       r="1.1288888"
       style="fill:#e68ea8;fill-opacity:0.6;stroke:#e68ea8;stroke-width:0;stroke-linecap:round;stroke-linejoin:round;stroke-miterlimit:10;stroke-opacity:0.6"
       id="circle135816" />
    <circle
       cx="75.730843"
       cy="56.162277"
       r="1.1288888"
       style="fill:#73b3df;fill-opacity:0.6;stroke:#73b3df;stroke-width:0;stroke-linecap:round;stroke-linejoin:round;stroke-miterlimit:10;stroke-opacity:0.6"
       id="circle135818" />
    <circle
       cx="60.546612"
       cy="72.696976"
       r="1.1288888"
       style="fill:#e68ea8;fill-opacity:0.6;stroke:#e68ea8;stroke-width:0;stroke-linecap:round;stroke-linejoin:round;stroke-miterlimit:10;stroke-opacity:0.6"
       id="circle135820" />
    <circle
       cx="58.754501"
       cy="58.525894"
       r="1.1288888"
       style="fill:#e68ea8;fill-opacity:0.6;stroke:#e68ea8;stroke-width:0;stroke-linecap:round;stroke-linejoin:round;stroke-miterlimit:10;stroke-opacity:0.6"
       id="circle135822" />
    <circle
       cx="60.144447"
       cy="66.724442"
       r="1.1288888"
       style="fill:#e68ea8;fill-opacity:0.6;stroke:#e68ea8;stroke-width:0;stroke-linecap:round;stroke-linejoin:round;stroke-miterlimit:10;stroke-opacity:0.6"
       id="circle135824" />
    <circle
       cx="60.147972"
       cy="42.015892"
       r="1.1288888"
       style="fill:#e68ea8;fill-opacity:0.6;stroke:#e68ea8;stroke-width:0;stroke-linecap:round;stroke-linejoin:round;stroke-miterlimit:10;stroke-opacity:0.6"
       id="circle135826" />
    <circle
       cx="73.307266"
       cy="70.707306"
       r="1.1288888"
       style="fill:#73b3df;fill-opacity:0.6;stroke:#73b3df;stroke-width:0;stroke-linecap:round;stroke-linejoin:round;stroke-miterlimit:10;stroke-opacity:0.6"
       id="circle135828" />
    <circle
       cx="73.617699"
       cy="53.636395"
       r="1.1288888"
       style="fill:#73b3df;fill-opacity:0.6;stroke:#73b3df;stroke-width:0;stroke-linecap:round;stroke-linejoin:round;stroke-miterlimit:10;stroke-opacity:0.6"
       id="circle135830" />
    <circle
       cx="55.953445"
       cy="73.226143"
       r="1.1288888"
       style="fill:#e68ea8;fill-opacity:0.6;stroke:#e68ea8;stroke-width:0;stroke-linecap:round;stroke-linejoin:round;stroke-miterlimit:10;stroke-opacity:0.6"
       id="circle135832" />
    <circle
       cx="73.07795"
       cy="71.723305"
       r="1.1288888"
       style="fill:#73b3df;fill-opacity:0.6;stroke:#73b3df;stroke-width:0;stroke-linecap:round;stroke-linejoin:round;stroke-miterlimit:10;stroke-opacity:0.6"
       id="circle135834" />
    <circle
       cx="74.531403"
       cy="56.860783"
       r="1.1288888"
       style="fill:#73b3df;fill-opacity:0.6;stroke:#73b3df;stroke-width:0;stroke-linecap:round;stroke-linejoin:round;stroke-miterlimit:10;stroke-opacity:0.6"
       id="circle135836" />
    <circle
       cx="54.521168"
       cy="52.892033"
       r="1.1288888"
       style="fill:#e68ea8;fill-opacity:0.6;stroke:#e68ea8;stroke-width:0;stroke-linecap:round;stroke-linejoin:round;stroke-miterlimit:10;stroke-opacity:0.6"
       id="circle135838" />
    <circle
       cx="60.049194"
       cy="77.688782"
       r="1.1288888"
       style="fill:#e68ea8;fill-opacity:0.6;stroke:#e68ea8;stroke-width:0;stroke-linecap:round;stroke-linejoin:round;stroke-miterlimit:10;stroke-opacity:0.6"
       id="circle135840" />
    <circle
       cx="57.01178"
       cy="31.774752"
       r="1.1288888"
       style="fill:#e68ea8;fill-opacity:0.6;stroke:#e68ea8;stroke-width:0;stroke-linecap:round;stroke-linejoin:round;stroke-miterlimit:10;stroke-opacity:0.6"
       id="circle135842" />
    <circle
       cx="55.762943"
       cy="59.792366"
       r="1.1288888"
       style="fill:#e68ea8;fill-opacity:0.6;stroke:#e68ea8;stroke-width:0;stroke-linecap:round;stroke-linejoin:round;stroke-miterlimit:10;stroke-opacity:0.6"
       id="circle135844" />
    <circle
       cx="79.290359"
       cy="55.650753"
       r="1.1288888"
       style="fill:#73b3df;fill-opacity:0.6;stroke:#73b3df;stroke-width:0;stroke-linecap:round;stroke-linejoin:round;stroke-miterlimit:10;stroke-opacity:0.6"
       id="circle135846" />
    <circle
       cx="77.939224"
       cy="71.384644"
       r="1.1288888"
       style="fill:#73b3df;fill-opacity:0.6;stroke:#73b3df;stroke-width:0;stroke-linecap:round;stroke-linejoin:round;stroke-miterlimit:10;stroke-opacity:0.6"
       id="circle135848" />
    <circle
       cx="76.238846"
       cy="71.755058"
       r="1.1288888"
       style="fill:#73b3df;fill-opacity:0.6;stroke:#73b3df;stroke-width:0;stroke-linecap:round;stroke-linejoin:round;stroke-miterlimit:10;stroke-opacity:0.6"
       id="circle135850" />
    <circle
       cx="59.336582"
       cy="50.920002"
       r="1.1288888"
       style="fill:#e68ea8;fill-opacity:0.6;stroke:#e68ea8;stroke-width:0;stroke-linecap:round;stroke-linejoin:round;stroke-miterlimit:10;stroke-opacity:0.6"
       id="circle135852" />
    <circle
       cx="73.94931"
       cy="64.593666"
       r="1.1288888"
       style="fill:#73b3df;fill-opacity:0.6;stroke:#73b3df;stroke-width:0;stroke-linecap:round;stroke-linejoin:round;stroke-miterlimit:10;stroke-opacity:0.6"
       id="circle135854" />
    <circle
       cx="73.462479"
       cy="80.44397"
       r="1.1288888"
       style="fill:#73b3df;fill-opacity:0.6;stroke:#73b3df;stroke-width:0;stroke-linecap:round;stroke-linejoin:round;stroke-miterlimit:10;stroke-opacity:0.6"
       id="circle135856" />
    <circle
       cx="73.310783"
       cy="80.338135"
       r="1.1288888"
       style="fill:#73b3df;fill-opacity:0.6;stroke:#73b3df;stroke-width:0;stroke-linecap:round;stroke-linejoin:round;stroke-miterlimit:10;stroke-opacity:0.6"
       id="circle135858" />
    <circle
       cx="75.346321"
       cy="74.319748"
       r="1.1288888"
       style="fill:#73b3df;fill-opacity:0.6;stroke:#73b3df;stroke-width:0;stroke-linecap:round;stroke-linejoin:round;stroke-miterlimit:10;stroke-opacity:0.6"
       id="circle135860" />
    <circle
       cx="77.889839"
       cy="62.547558"
       r="1.1288888"
       style="fill:#73b3df;fill-opacity:0.6;stroke:#73b3df;stroke-width:0;stroke-linecap:round;stroke-linejoin:round;stroke-miterlimit:10;stroke-opacity:0.6"
       id="circle135862" />
    <circle
       cx="56.521416"
       cy="47.33931"
       r="1.1288888"
       style="fill:#e68ea8;fill-opacity:0.6;stroke:#e68ea8;stroke-width:0;stroke-linecap:round;stroke-linejoin:round;stroke-miterlimit:10;stroke-opacity:0.6"
       id="circle135864" />
    <line
       x1="27.828396"
       y1="58.070808"
       x2="51.877369"
       y2="58.070808"
       style="fill:none;stroke:#e68ea8;stroke-width:0.964;stroke-linecap:butt;stroke-linejoin:miter;stroke-miterlimit:10;stroke-dasharray:none"
       id="line135866" />
    <line
       x1="81.847549"
       y1="66.629196"
       x2="101.47786"
       y2="66.629196"
       style="fill:none;stroke:#73b3df;stroke-width:0.955044;stroke-linecap:butt;stroke-linejoin:miter;stroke-miterlimit:10;stroke-dasharray:none"
       id="line135868" />
    <g
       clip-path="url(#cpMC4wMHwzNjAuMDB8MC4wMHwyODguMDA=)"
       id="g135872"
       transform="matrix(0.35277777,0,0,0.35277777,3.4752289,-0.40842353)" />
    <polyline
       points="46.76,248.25 353.03,248.25 "
       style="fill:none;stroke:#000000;stroke-width:1.07;stroke-linecap:square;stroke-linejoin:round;stroke-miterlimit:10"
       id="polyline135883"
       transform="matrix(0.27804382,0,0,0.35277777,10.445208,3.8100594)"
       clip-path="url(#clipPath137555)" />
    <polyline
       points="46.76,248.25 46.76,29.00 "
       style="fill:none;stroke:#000000;stroke-width:1.07;stroke-linecap:square;stroke-linejoin:round;stroke-miterlimit:10"
       id="polyline135885"
       transform="matrix(0.35277777,0,0,0.36873366,6.9906313,-0.15952755)"
       clip-path="url(#clipPath137551)" />
    <text
       x="40.279999"
       y="246.57001"
       text-anchor="end"
       style="font-size:12px;font-family:Arial;white-space:pre"
       textLength="16.68"
       lengthAdjust="spacingAndGlyphs"
       id="text135887"
       transform="matrix(0.47939186,0,0,0.47939186,1.9603457,-27.427725)">0.0</text>
    <text
       x="40.279999"
       y="185.96001"
       text-anchor="end"
       style="font-size:12px;font-family:Arial;white-space:pre"
       textLength="16.68"
       lengthAdjust="spacingAndGlyphs"
       id="text135889"
       transform="matrix(0.47939186,0,0,0.47939186,1.9603457,-19.240604)">0.2</text>
    <text
       x="40.279999"
       y="125.36"
       text-anchor="end"
       style="font-size:12px;font-family:Arial;white-space:pre"
       textLength="16.68"
       lengthAdjust="spacingAndGlyphs"
       id="text135891"
       transform="matrix(0.47939186,0,0,0.47939186,1.9603457,-11.698258)">0.4</text>
    <text
       x="40.279999"
       y="64.760002"
       text-anchor="end"
       style="font-size:12px;font-family:Arial;white-space:pre"
       textLength="16.68"
       lengthAdjust="spacingAndGlyphs"
       id="text135893"
       transform="matrix(0.47939186,0,0,0.47939186,1.9603457,-4.1559121)">0.6</text>
    <polyline
       points="43.27,242.26 46.76,242.26 "
       style="fill:none;stroke:#000000;stroke-width:1.07;stroke-linecap:butt;stroke-linejoin:round;stroke-miterlimit:10"
       id="polyline135895"
       transform="matrix(0.35277777,0,0,0.35277777,6.9906313,3.8100594)"
       clip-path="url(#clipPath137547)" />
    <polyline
       points="43.27,181.66 46.76,181.66 "
       style="fill:none;stroke:#000000;stroke-width:1.07;stroke-linecap:butt;stroke-linejoin:round;stroke-miterlimit:10"
       id="polyline135897"
       transform="matrix(0.35277777,0,0,0.35277777,6.9906313,3.8100594)"
       clip-path="url(#clipPath137543)" />
    <polyline
       points="43.27,121.06 46.76,121.06 "
       style="fill:none;stroke:#000000;stroke-width:1.07;stroke-linecap:butt;stroke-linejoin:round;stroke-miterlimit:10"
       id="polyline135899"
       transform="matrix(0.35277777,0,0,0.35277777,6.9906313,3.8100594)"
       clip-path="url(#clipPath137539)" />
    <polyline
       points="43.27,60.45 46.76,60.45 "
       style="fill:none;stroke:#000000;stroke-width:1.07;stroke-linecap:butt;stroke-linejoin:round;stroke-miterlimit:10"
       id="polyline135901"
       transform="matrix(0.35277777,0,0,0.35277777,6.9906313,3.8100594)" />
    <text
       transform="matrix(0,-0.44955139,0.44955139,0,8.4084005,50.914023)"
       text-anchor="middle"
       style="font-size:14px;font-family:Arial;white-space:pre"
       textLength="175.03999"
       lengthAdjust="spacingAndGlyphs"
       id="text135903">Regional HoFC (Pearson R)</text>
    <rect
       x="58.243443"
       y="95.990906"
       width="5.938972"
       height="5.938972"
       style="fill:#e68ea8;fill-opacity:0.4;stroke:#e68ea8;stroke-width:0.711;stroke-linecap:butt;stroke-linejoin:miter;stroke-miterlimit:10;stroke-dasharray:none"
       id="rect135907" />
    <rect
       x="75.628349"
       y="95.990906"
       width="5.938972"
       height="5.938972"
       style="fill:#73b3df;fill-opacity:0.4;stroke:#73b3df;stroke-width:0.711;stroke-linecap:butt;stroke-linejoin:miter;stroke-miterlimit:10;stroke-dasharray:none"
       id="rect135911" />
    <text
       x="122.73"
       y="277.66"
       style="font-size:12px;font-family:Arial;white-space:pre"
       textLength="7.3299999"
       lengthAdjust="spacingAndGlyphs"
       id="text135915"
       transform="matrix(0.47473798,0,0,0.47473798,9.9008696,-30.81161)">F</text>
    <text
       x="159.35001"
       y="277.66"
       style="font-size:12px;font-family:Arial;white-space:pre"
       textLength="9.9899998"
       lengthAdjust="spacingAndGlyphs"
       id="text135917"
       transform="matrix(0.47473798,0,0,0.47473798,9.9008696,-30.81161)">M</text>
    <text
       xml:space="preserve"
       style="font-size:6.13935px;line-height:1;font-family:'Helvetica Neue';-inkscape-font-specification:'Helvetica Neue';text-decoration:none;text-decoration-line:none;text-decoration-color:#000000;fill:#000000;stroke-width:1.19831;stroke-linecap:square;stroke-dasharray:none;stop-color:#000000"
       x="29.536407"
       y="6.5694561"
       id="text137561"><tspan
         sodipodi:role="line"
         id="tspan137559"
         style="font-weight:bold;stroke-width:1.19831"
         x="29.536407"
         y="6.5694561">Posterior cingulate cortex</tspan></text>
    <text
       xml:space="preserve"
       style="font-size:6.65273px;line-height:1;font-family:'Helvetica Neue';-inkscape-font-specification:'Helvetica Neue';text-decoration:none;text-decoration-line:none;text-decoration-color:#000000;fill:#000000;stroke-width:1.29851;stroke-linecap:square;stroke-dasharray:none;stop-color:#000000"
       x="43.164776"
       y="100.97285"
       id="text137565"><tspan
         sodipodi:role="line"
         id="tspan137563"
         style="stroke-width:1.29851"
         x="43.164776"
         y="100.97285">Sex</tspan></text>
    <path
       style="fill:#000000;stroke:#000000;stroke-width:0.511;stroke-linecap:square;stroke-dasharray:none;stroke-opacity:1;stop-color:#000000"
       d="M 51.297568,14.508812 H 82.319733"
       id="path138077" />
    <text
       xml:space="preserve"
       style="font-size:13.8771px;line-height:1;font-family:'Helvetica Neue';-inkscape-font-specification:'Helvetica Neue';text-decoration:none;text-decoration-line:none;text-decoration-color:#000000;fill:#000000;stroke:#000000;stroke-width:1.43579;stroke-linecap:square;stroke-dasharray:none;stroke-opacity:1;stop-color:#000000"
       x="64.551476"
       y="19.477343"
       id="text138081"><tspan
         sodipodi:role="line"
         id="tspan138079"
         style="stroke:none;stroke-width:1.43579"
         x="64.551476"
         y="19.477343">*</tspan></text>
  </g>
</svg>
